<svg xmlns="http://www.w3.org/2000/svg" version="1.1" xmlns:xlink="http://www.w3.org/1999/xlink" xmlns:svgjs="http://svgjs.dev/svgjs" width="1500" height="1500" viewBox="0 0 1500 1500"><rect width="1500" height="1500" fill="#e5b763"></rect><g transform="matrix(0.6666666666666666,0,0,0.6666666666666666,249.3940473827413,584.1456665053205)"><svg viewBox="0 0 396 131" data-background-color="#e5b763" preserveAspectRatio="xMidYMid meet" height="496" width="1500" xmlns="http://www.w3.org/2000/svg" xmlns:xlink="http://www.w3.org/1999/xlink"><g id="tight-bounds" transform="matrix(1,0,0,1,0.23995723643446354,0.20640429779138003)"><svg viewBox="0 0 395.52 130.58719140441724" height="130.58719140441724" width="395.52"><g><svg viewBox="0 0 395.52 130.58719140441724" height="130.58719140441724" width="395.52"><g transform="matrix(1,0,0,1,0,67.2350947696861)"><svg viewBox="0 0 395.52 63.35209663473115" height="63.35209663473115" width="395.52"><g id="textblocktransform"><svg viewBox="0 0 395.52 63.35209663473115" height="63.35209663473115" width="395.52" id="textblock"><g><svg viewBox="0 0 395.52 63.35209663473115" height="63.35209663473115" width="395.52"><g transform="matrix(1,0,0,1,0,0)"><svg width="395.52" viewBox="4.6328199999999935 -21.779650000000004 392.7699736223918 62.91160247026879" height="63.35209663473115" data-palette-color="#586474"><path d="M23.281-14.011l6.543 1.128c0.162 1.415 0.334 3.007 0.516 4.777 0.182 1.77 0.39 3.602 0.624 5.497 0.227 1.9 0.465 3.798 0.713 5.694 0.248 1.896 0.501 3.662 0.76 5.296v0c0.709-1.603 1.457-3.348 2.243-5.235 0.779-1.888 1.547-3.85 2.304-5.884 0.756-2.028 1.5-4.051 2.234-6.068 0.74-2.017 1.441-3.963 2.103-5.838v0l7.962 1.374c-2.133 5.504-4.452 11.061-6.955 16.67-2.505 5.616-5.079 10.912-7.723 15.888v0l-7.036-1.213c-0.6-3.344-1.144-6.841-1.631-10.49-0.488-3.643-0.958-7.292-1.409-10.949v0c-1.644 3.295-3.29 6.58-4.937 9.854-1.648 3.281-3.316 6.396-5.002 9.346v0l-7.036-1.214c-0.824-5.575-1.476-11.427-1.953-17.558-0.486-6.125-0.808-12.137-0.968-18.037v0l8.307 1.433c-0.005 1.988 0.01 4.057 0.045 6.208 0.035 2.151 0.085 4.311 0.151 6.48 0.064 2.176 0.147 4.284 0.249 6.324 0.101 2.04 0.237 3.938 0.408 5.693v0c0.869-1.508 1.738-3.113 2.607-4.817 0.869-1.704 1.722-3.414 2.559-5.13 0.83-1.711 1.612-3.365 2.348-4.963 0.728-1.593 1.386-3.015 1.974-4.266zM48.827 8.494v0c0.314-2.305 0.942-4.275 1.885-5.91 0.943-1.634 2.071-2.951 3.384-3.949 1.306-0.993 2.752-1.684 4.34-2.074 1.58-0.39 3.16-0.478 4.739-0.262v0c3.693 0.503 6.455 2.03 8.287 4.58 1.839 2.552 2.46 6.02 1.863 10.407v0c-0.058 0.423-0.138 0.89-0.242 1.4-0.102 0.504-0.197 0.952-0.284 1.344v0l-16.715-2.277c-0.042 1.542 0.505 2.841 1.639 3.897 1.127 1.062 2.747 1.737 4.861 2.025v0c1.348 0.184 2.689 0.242 4.023 0.174 1.342-0.073 2.447-0.235 3.316-0.487v0l0.176 6.12c-0.423 0.144-0.979 0.27-1.666 0.379-0.681 0.109-1.438 0.181-2.27 0.215-0.827 0.042-1.709 0.05-2.648 0.023-0.932-0.026-1.86-0.102-2.784-0.228v0c-2.338-0.319-4.326-0.942-5.962-1.872-1.636-0.929-2.944-2.073-3.923-3.431-0.972-1.357-1.617-2.898-1.934-4.623-0.318-1.719-0.346-3.536-0.085-5.451zM56.771 6.71l9.74 1.326c0.052-0.632 0.03-1.257-0.068-1.876-0.105-0.613-0.314-1.176-0.627-1.69-0.314-0.514-0.741-0.959-1.282-1.335-0.534-0.376-1.231-0.622-2.089-0.739v0c-0.826-0.112-1.551-0.07-2.177 0.127-0.633 0.203-1.179 0.509-1.639 0.918-0.459 0.408-0.836 0.902-1.13 1.481-0.301 0.578-0.543 1.174-0.728 1.788zM95.722 13.855v0c0.515-4.766-0.981-7.338-4.487-7.717v0c-0.762-0.082-1.525-0.064-2.289 0.055-0.764 0.119-1.394 0.302-1.89 0.55v0l-1.452 13.442c0.357 0.106 0.815 0.215 1.373 0.329 0.552 0.107 1.159 0.196 1.822 0.268v0c2.022 0.218 3.618-0.313 4.789-1.596 1.177-1.274 1.889-3.052 2.135-5.331zM103.247 14.869v0c-0.225 2.081-0.736 3.93-1.534 5.547-0.792 1.624-1.833 2.97-3.122 4.038-1.281 1.062-2.802 1.826-4.562 2.293-1.753 0.461-3.707 0.575-5.861 0.343v0c-0.888-0.096-1.818-0.24-2.79-0.432-0.966-0.185-1.912-0.394-2.839-0.628-0.927-0.234-1.811-0.487-2.654-0.759-0.842-0.279-1.583-0.553-2.224-0.824v0l3.938-36.468 7.526-0.394-1.405 13.004c0.868-0.275 1.757-0.464 2.667-0.567 0.916-0.102 1.888-0.098 2.915 0.013v0c1.849 0.2 3.452 0.698 4.808 1.495 1.348 0.803 2.439 1.849 3.271 3.139 0.832 1.297 1.407 2.807 1.724 4.531 0.317 1.724 0.364 3.613 0.142 5.669zM130.144 1.748l-1.406 21.815c0.364 0.057 0.784 0.111 1.262 0.162 0.478 0.044 1.05 0.088 1.715 0.13v0c3.885 0.25 6.829-0.542 8.831-2.377 2.003-1.842 3.115-4.489 3.338-7.941v0c0.233-3.619-0.488-6.415-2.165-8.387-1.67-1.978-4.447-3.092-8.332-3.343v0c-0.532-0.034-1.082-0.06-1.649-0.076-0.56-0.023-1.091-0.017-1.594 0.017zM151.897 14.053v0c-0.193 2.987-0.823 5.565-1.891 7.735-1.075 2.162-2.514 3.92-4.318 5.273-1.804 1.347-3.957 2.307-6.459 2.88-2.509 0.573-5.29 0.761-8.344 0.565v0c-1.39-0.09-3.013-0.254-4.868-0.495-1.849-0.233-3.66-0.59-5.432-1.071v0l2.167-33.611c1.818-0.217 3.702-0.323 5.652-0.317 1.95 0.012 3.62 0.063 5.01 0.153v0c2.954 0.19 5.614 0.696 7.979 1.517 2.366 0.814 4.364 1.992 5.995 3.533 1.638 1.542 2.85 3.454 3.639 5.736 0.781 2.282 1.072 4.983 0.87 8.102zM156.37 18.553v0c0.074-2.325 0.495-4.35 1.264-6.073 0.769-1.723 1.754-3.149 2.957-4.278 1.196-1.122 2.564-1.959 4.102-2.511 1.532-0.552 3.094-0.802 4.686-0.751v0c3.725 0.119 6.63 1.352 8.717 3.699 2.093 2.348 3.069 5.734 2.928 10.159v0c-0.014 0.426-0.045 0.899-0.095 1.417-0.05 0.512-0.098 0.967-0.143 1.366v0l-16.862-0.537c0.118 1.538 0.795 2.773 2.033 3.707 1.231 0.94 2.912 1.443 5.045 1.511v0c1.359 0.043 2.699-0.037 4.019-0.242 1.327-0.211 2.41-0.487 3.248-0.827v0l0.808 6.069c-0.406 0.187-0.946 0.37-1.619 0.549-0.666 0.179-1.411 0.329-2.235 0.449-0.818 0.127-1.695 0.226-2.631 0.296-0.929 0.07-1.861 0.091-2.793 0.061v0c-2.359-0.075-4.4-0.49-6.124-1.245-1.724-0.755-3.142-1.758-4.256-3.007-1.107-1.249-1.908-2.715-2.401-4.399-0.494-1.677-0.71-3.481-0.648-5.413zM164.086 15.957l9.825 0.313c-0.013-0.634-0.1-1.254-0.261-1.859-0.168-0.599-0.434-1.138-0.799-1.617-0.365-0.479-0.836-0.877-1.412-1.195-0.57-0.318-1.288-0.491-2.155-0.519v0c-0.833-0.027-1.55 0.091-2.152 0.352-0.609 0.267-1.121 0.628-1.535 1.081-0.415 0.454-0.738 0.984-0.972 1.59-0.239 0.606-0.419 1.224-0.539 1.854zM194.24 27.002v0c1.36 0.008 2.324-0.119 2.892-0.382 0.568-0.263 0.855-0.778 0.86-1.545v0c0.004-0.593-0.36-1.119-1.091-1.577-0.724-0.451-1.834-0.964-3.331-1.54v0c-1.164-0.44-2.218-0.897-3.161-1.369-0.944-0.472-1.747-1.034-2.41-1.684-0.663-0.651-1.175-1.427-1.536-2.33-0.361-0.902-0.538-1.983-0.531-3.243v0c0.015-2.467 0.943-4.408 2.785-5.823 1.835-1.422 4.353-2.124 7.553-2.105v0c1.593 0.01 3.122 0.162 4.588 0.458 1.458 0.289 2.62 0.602 3.484 0.941v0l-1.335 5.782c-0.865-0.305-1.803-0.578-2.815-0.817-1.012-0.239-2.151-0.363-3.418-0.371v0c-2.327-0.014-3.494 0.629-3.502 1.929v0c-0.002 0.3 0.047 0.567 0.146 0.801 0.099 0.227 0.297 0.452 0.596 0.674 0.299 0.215 0.704 0.451 1.215 0.707 0.518 0.25 1.174 0.527 1.965 0.832v0c1.63 0.61 2.976 1.208 4.04 1.794 1.056 0.593 1.893 1.231 2.508 1.915 0.609 0.684 1.035 1.443 1.276 2.278 0.248 0.835 0.369 1.799 0.363 2.892v0c-0.016 2.6-1.001 4.557-2.955 5.873-1.955 1.322-4.712 1.972-8.272 1.95v0c-2.327-0.014-4.262-0.226-5.807-0.635-1.551-0.409-2.622-0.749-3.214-1.019v0l1.277-6.033c1.264 0.508 2.561 0.909 3.893 1.204 1.325 0.288 2.637 0.436 3.937 0.443zM218.235 5.998l0.308 26.248-7.439 0.088-0.308-26.249zM218.846-1.59v0c0.016 1.36-0.411 2.435-1.282 3.226-0.877 0.797-1.913 1.203-3.106 1.216v0c-1.2 0.014-2.244-0.367-3.134-1.143-0.896-0.77-1.352-1.834-1.367-3.194v0c-0.016-1.367 0.415-2.445 1.292-3.236 0.871-0.797 1.906-1.202 3.106-1.216v0c1.193-0.014 2.238 0.367 3.133 1.143 0.889 0.77 1.342 1.838 1.358 3.204zM231.678 17.876v0c0.136 4.151 1.883 6.172 5.241 6.062v0c0.766-0.025 1.479-0.145 2.139-0.36 0.66-0.222 1.215-0.473 1.666-0.755v0l-0.389-11.874c-0.362-0.055-0.794-0.101-1.295-0.138-0.501-0.03-1.085-0.034-1.751-0.012v0c-1.959 0.064-3.4 0.762-4.324 2.093-0.924 1.324-1.353 2.986-1.287 4.984zM247.616 5.968l0.723 22.048c0.14 4.284-0.845 7.502-2.956 9.652-2.111 2.15-5.441 3.3-9.992 3.449v0c-1.599 0.052-3.203-0.035-4.811-0.262-1.602-0.234-3.093-0.562-4.475-0.984v0l1.095-6.27c1.181 0.428 2.416 0.751 3.704 0.97 1.288 0.225 2.748 0.31 4.381 0.256v0c2.126-0.07 3.613-0.582 4.462-1.537 0.849-0.962 1.249-2.175 1.201-3.641v0l-0.031-0.939c-0.781 0.386-1.595 0.686-2.441 0.9-0.84 0.208-1.76 0.328-2.76 0.361v0c-3.625 0.119-6.435-0.863-8.431-2.946-1.996-2.076-3.057-5.043-3.183-8.9v0c-0.063-1.932 0.176-3.698 0.717-5.297 0.548-1.599 1.376-2.983 2.485-4.153 1.116-1.164 2.493-2.083 4.132-2.757 1.646-0.668 3.515-1.036 5.607-1.104v0c0.9-0.029 1.824-0.016 2.772 0.039 0.949 0.049 1.892 0.125 2.829 0.227 0.937 0.103 1.832 0.23 2.684 0.383 0.852 0.159 1.615 0.327 2.288 0.505zM255.782 30.88l-1.535-25.303c1.242-0.443 2.849-0.881 4.82-1.315 1.977-0.44 4.06-0.727 6.249-0.859v0c2.229-0.135 4.1 0.042 5.613 0.531 1.513 0.496 2.731 1.25 3.653 2.263 0.929 1.006 1.621 2.229 2.076 3.671 0.454 1.435 0.736 3.051 0.845 4.847v0l0.898 14.793-7.427 0.451-0.843-13.895c-0.145-2.396-0.561-4.07-1.246-5.024-0.693-0.96-1.904-1.387-3.634-1.282v0c-0.532 0.032-1.093 0.09-1.683 0.172-0.596 0.09-1.124 0.182-1.586 0.277v0l1.226 20.223zM313.851 26.832v0c-5.59 0.579-10.012-0.535-13.265-3.342-3.246-2.807-5.166-7.075-5.76-12.804v0c-0.295-2.845-0.113-5.431 0.544-7.758 0.664-2.327 1.695-4.341 3.094-6.04 1.392-1.699 3.122-3.054 5.189-4.067 2.073-1.019 4.366-1.659 6.879-1.918v0c1.459-0.151 2.793-0.182 4.002-0.093 1.216 0.095 2.286 0.236 3.21 0.421 0.918 0.193 1.691 0.405 2.318 0.635 0.628 0.237 1.083 0.424 1.365 0.562v0l-1.58 6.488c-1.119-0.454-2.403-0.807-3.85-1.059-1.447-0.252-3.066-0.286-4.856-0.101v0c-1.194 0.124-2.34 0.443-3.439 0.96-1.099 0.516-2.041 1.257-2.826 2.223-0.784 0.973-1.369 2.179-1.757 3.62-0.386 1.447-0.477 3.163-0.271 5.145v0c0.165 1.591 0.491 3.056 0.978 4.393 0.494 1.336 1.18 2.462 2.058 3.376 0.879 0.914 1.978 1.595 3.298 2.041 1.32 0.446 2.871 0.577 4.655 0.392v0c1.127-0.117 2.128-0.287 3.003-0.512 0.881-0.225 1.661-0.464 2.339-0.714 0.677-0.258 1.269-0.53 1.776-0.818 0.507-0.28 0.963-0.542 1.366-0.785v0l2.78 5.976c-1.025 0.776-2.502 1.533-4.43 2.268-1.934 0.737-4.208 1.24-6.82 1.511zM340.772 17.271l-0.271 6.223c-2.147 0.238-3.916 0.227-5.306-0.034-1.39-0.261-2.525-0.729-3.404-1.404-0.872-0.676-1.517-1.552-1.935-2.627-0.424-1.069-0.724-2.294-0.899-3.677v0l-3.628-28.671 7.23-2.125 3.591 28.374c0.084 0.661 0.209 1.25 0.375 1.767 0.165 0.51 0.41 0.929 0.734 1.258 0.33 0.328 0.775 0.574 1.333 0.738 0.552 0.165 1.278 0.225 2.18 0.178zM364.281-7.042l3.696 25.079c-1.2 0.547-2.763 1.121-4.689 1.722-1.925 0.607-3.976 1.071-6.153 1.392v0c-2.203 0.325-4.08 0.298-5.631-0.08-1.552-0.378-2.835-1.038-3.85-1.979-1.015-0.942-1.813-2.128-2.395-3.559-0.581-1.424-1.002-3.026-1.264-4.807v0l-2.132-14.464 7.36-1.085 2.001 13.574c0.35 2.374 0.916 4.04 1.697 4.996 0.782 0.963 2.027 1.318 3.735 1.066v0c0.528-0.078 1.085-0.183 1.672-0.317 0.586-0.14 1.101-0.277 1.546-0.41v0l-2.954-20.043zM389.6 1.604v0c-0.836-4.72-2.991-6.772-6.463-6.157v0c-0.755 0.134-1.483 0.364-2.183 0.692-0.7 0.327-1.254 0.679-1.661 1.056v0l2.359 13.313c0.373 0.002 0.843-0.021 1.409-0.067 0.56-0.052 1.168-0.136 1.824-0.253v0c2.002-0.355 3.387-1.311 4.154-2.868 0.774-1.552 0.962-3.457 0.561-5.716zM397.109 0.477v0c0.365 2.061 0.39 3.98 0.075 5.755-0.307 1.781-0.931 3.364-1.87 4.749-0.934 1.377-2.181 2.536-3.741 3.476-1.555 0.932-3.399 1.587-5.532 1.966v0c-0.88 0.156-1.813 0.277-2.8 0.363-0.979 0.092-1.946 0.155-2.901 0.19-0.955 0.034-1.875 0.038-2.761 0.011-0.886-0.033-1.675-0.089-2.365-0.17v0l-6.399-36.117 7.116-2.48 2.282 12.88c0.757-0.506 1.557-0.936 2.402-1.289 0.851-0.354 1.786-0.621 2.803-0.801v0c1.831-0.324 3.509-0.293 5.034 0.093 1.519 0.394 2.858 1.095 4.018 2.101 1.161 1.013 2.134 2.303 2.92 3.87 0.785 1.567 1.358 3.368 1.719 5.403z" opacity="1" transform="matrix(1,0,0,1,0,0)" fill="#586474" class="wordmark-text-0" data-fill-palette-color="primary" id="text-0"></path></svg></g></svg></g></svg></g></svg></g><g transform="matrix(1,0,0,1,166.08395168263442,0)"><svg viewBox="0 0 63.352096634731154 63.352096634731154" height="63.352096634731154" width="63.352096634731154"><g><svg xmlns="http://www.w3.org/2000/svg" xmlns:xlink="http://www.w3.org/1999/xlink" version="1.1" x="0" y="0" viewBox="5 5 90 90" enable-background="new 0 0 100 100" xml:space="preserve" height="63.352096634731154" width="63.352096634731154" class="icon-icon-0" data-fill-palette-color="accent" id="icon-0"><path d="M50 5C25.2 5 5 25.2 5 50S25.2 95 50 95 95 74.8 95 50 74.8 5 50 5M72.3 45.5C71.9 34.5 69.7 25 66.1 17.9 76.6 23.2 84.1 33.4 85.6 45.5zM33.8 17.9C30.3 25 28 34.5 27.6 45.5H14.3C15.9 33.4 23.4 23.2 33.8 17.9M27.7 54.5C28.3 65.8 30.9 75.6 35 82.6 23.9 77.6 16 67 14.3 54.5zM50 84.5C44.9 84.5 37.8 73.2 36.7 54.5H63.3C62.1 73.3 55.1 84.5 50 84.5M36.6 45.5C37.4 25.9 44.7 14 50 14S62.5 25.9 63.4 45.5zM65 82.6C69 75.6 71.7 65.8 72.2 54.5H85.6C84 67 76 77.6 65 82.6" fill="#639be6" data-fill-palette-color="accent"></path></svg></g></svg></g><g></g></svg></g><defs></defs></svg><rect width="395.52" height="130.58719140441724" fill="none" stroke="none" visibility="hidden"></rect></g></svg></g></svg>